<?xml version="1.0" encoding="UTF-8" standalone="no"?>
<!-- Created with Inkscape (http://www.inkscape.org/) -->

<svg
   xmlns:dc="http://purl.org/dc/elements/1.1/"
   xmlns:cc="http://creativecommons.org/ns#"
   xmlns:rdf="http://www.w3.org/1999/02/22-rdf-syntax-ns#"
   xmlns:svg="http://www.w3.org/2000/svg"
   xmlns="http://www.w3.org/2000/svg"
   xmlns:sodipodi="http://sodipodi.sourceforge.net/DTD/sodipodi-0.dtd"
   xmlns:inkscape="http://www.inkscape.org/namespaces/inkscape"
   id="svg4099"
   version="1.1"
   inkscape:version="0.48.3.1 r9886"
   width="37.2"
   height="40.875"
   xml:space="preserve"
   sodipodi:docname="IN_Blue.svg"><metadata
     id="metadata4105"><rdf:RDF><cc:Work
         rdf:about=""><dc:format>image/svg+xml</dc:format><dc:type
           rdf:resource="http://purl.org/dc/dcmitype/StillImage" /><dc:title></dc:title></cc:Work></rdf:RDF></metadata><defs
     id="defs4103"><clipPath
       clipPathUnits="userSpaceOnUse"
       id="clipPath4115"><path
         d="m 0,0 297.637,0 0,327 L 0,327 0,0 z"
         id="path4117" /></clipPath></defs><sodipodi:namedview
     pagecolor="#ffffff"
     bordercolor="#666666"
     borderopacity="1"
     objecttolerance="10"
     gridtolerance="10"
     guidetolerance="10"
     inkscape:pageopacity="0"
     inkscape:pageshadow="2"
     inkscape:window-width="1920"
     inkscape:window-height="1058"
     id="namedview4101"
     showgrid="false"
     inkscape:zoom="11.313709"
     inkscape:cx="-5.0128001"
     inkscape:cy="35.583656"
     inkscape:window-x="-8"
     inkscape:window-y="-8"
     inkscape:window-maximized="1"
     inkscape:current-layer="g4107" /><g
     id="g4107"
     inkscape:groupmode="layer"
     inkscape:label="IN"
     transform="matrix(1.25,0,0,-1.25,0,40.875)"><g
       id="g4109"
       transform="scale(0.1,0.1)"
       style="fill:#000000;fill-opacity:1;"><g
         id="g4111"
         style="fill:#000000;fill-opacity:1"><g
           id="g4113"
           clip-path="url(#clipPath4115)"
           style="fill:#000000;fill-opacity:1"><path
             d="m 151.848,327.012 -6.051,0 0,-293.7698 6.051,0 0,293.7698 z m 9.351,-29.903 -0.496,-6.019 C 234.094,285.039 291.582,222.551 291.582,148.801 291.582,70.0977 227.539,6.05469 148.812,6.05469 70.0898,6.05469 6.04297,70.0977 6.04297,148.801 c 0,73.758 57.50003,136.25 130.89503,142.289 l -0.489,6.019 C 59.9297,290.832 0,225.676 0,148.801 0,66.7383 66.7578,0 148.812,0 c 82.067,0 148.825,66.7383 148.825,148.801 0,76.863 -59.934,142.015 -136.438,148.308"
             style="fill:#000000;fill-opacity:1;fill-rule:nonzero;stroke:none"
             id="path4119" /></g></g></g></g></svg>