<?xml version="1.0" encoding="UTF-8" standalone="no"?>
<!-- Created with Inkscape (http://www.inkscape.org/) -->

<svg
   xmlns:dc="http://purl.org/dc/elements/1.1/"
   xmlns:cc="http://creativecommons.org/ns#"
   xmlns:rdf="http://www.w3.org/1999/02/22-rdf-syntax-ns#"
   xmlns:svg="http://www.w3.org/2000/svg"
   xmlns="http://www.w3.org/2000/svg"
   version="1.1"
   width="37.200001"
   height="40.875"
   id="svg4099"
   xml:space="preserve"><metadata
     id="metadata4105"><rdf:RDF><cc:Work
         rdf:about=""><dc:format>image/svg+xml</dc:format><dc:type
           rdf:resource="http://purl.org/dc/dcmitype/StillImage" /><dc:title></dc:title></cc:Work></rdf:RDF></metadata><defs
     id="defs4103"><clipPath
       id="clipPath4115"><path
         d="m 0,0 297.637,0 0,327 L 0,327 0,0 z"
         id="path4117" /></clipPath></defs><g
     transform="matrix(1.25,0,0,-1.25,0,40.875)"
     id="g4107"><g
       transform="scale(0.1,0.1)"
       id="g4109"><g
         id="g4111"><g
           clip-path="url(#clipPath4115)"
           id="g4113"><path
             d="m 151.848,327.012 -6.051,0 0,-293.7698 6.051,0 0,293.7698 z m 9.351,-29.903 -0.496,-6.019 C 234.094,285.039 291.582,222.551 291.582,148.801 291.582,70.0977 227.539,6.05469 148.812,6.05469 70.0898,6.05469 6.04297,70.0977 6.04297,148.801 c 0,73.758 57.50003,136.25 130.89503,142.289 l -0.489,6.019 C 59.9297,290.832 0,225.676 0,148.801 0,66.7383 66.7578,0 148.812,0 c 82.067,0 148.825,66.7383 148.825,148.801 0,76.863 -59.934,142.015 -136.438,148.308"
             id="path4119"
             style="fill:#1478c7;fill-opacity:1;fill-rule:nonzero;stroke:none" /></g></g></g></g></svg>