P2
# Created by Sim
512 32
255
6 49 49 49 49 49 49 49 49 49 49 49 49 49 49 49 49 49 49 49 49 49 49 49 49 49 49 49 49 49 49 49 49 49 47 44 42 46 49 51 51 52 52 54 55 55 56 59 60 63 62 61 61 65 64 65 66 68 68 68 64 54 51 48 45 43 42 42 42 42 41 42 44 45 45 49 50 54 56 60 65 72 80 81 80 80 79 75 73 73 73 73 73 70 71 69 67 64 62 61 50 41 25 22 21 21 20 23 37 45 70 78 80 67 63 57 53 43 35 30 32 35 40 43 47 53 54 53 57 56 56 63 65 64 62 61 60 54 48 46 45 43 42 42 40 39 38 36 36 35 34 33 32 32 30 27 25 25 26 26 24 25 25 27 29 30 30 31 31 34 36 36 38 38 39 39 40 39 39 40 40 42 41 42 42 43 44 44 44 44 46 45 46 46 46 46 46 45 45 45 44 44 44 45 45 46 44 44 44 43 41 39 39 37 35 34 33 33 33 34 33 33 20 16 15 15 16 19 22 32 30 28 26 28 28 27 27 28 29 30 30 29 24 22 19 17 16 15 13 12 11 11 11 11 11 11 11 12 12 12 12 12 12 11 11 10 9 9 10 10 10 10 10 11 13 14 15 18 21 23 24 24 25 26 27 28 29 29 29 29 30 30 30 30 31 30 28 27 27 26 25 25 25 26 27 27 27 27 27 26 26 26 27 27 27 27 27 25 26 26 26 25 25 26 26 26 27 26 27 27 27 27 27 28 28 29 29 29 29 29 30 31 31 31 31 31 32 31 32 32 35 35 37 37 38 38 38 40 40 39 39 38 38 37 36 36 36 35 35 35 36 36 37 38 40 41 41 43 42 44 45 46 49 47 43 40 41 45 47 59 71 74 73 76 73 61 57 53 44 39 40 48 55 62 82 100 98 67 55 45 39 34 22 17 17 17 24 32 54 61 66 68 68 68 68 72 75 80 82 83 84 85 84 81 72 68 63 60 55 53 51 49 47 47 46 44 44 44 44 45 45 47 49 51 53 61 71 79 75 75 75 74 75 71 67 65 64 65 64 62 61 62 59 59 57 54 53 49 49 49 49 47 43 39 41 43 47 49 49 49 49 49 49 49 49 49 49 49 49 49 49 49 49 49 49 49 49 49 49 49 49 49 6 6 7 7 8 8 9 10 10 11 13 14 15 16 18 19 21 23 25 27 29 32 35 38 42 45 49 50 50 50 50 51 51 51 51 51 50 50 50 50 50 51 50 47 44 44 46 50 50 50 52 54 55 60 63 63 63 64 63 65 67 66 66 66 68 70 73 70 59 50 48 46 45 43 44 45 43 44 44 45 46 48 50 53 55 59 58 65 73 81 83 82 78 78 77 74 75 74 74 70 71 69 63 50 39 35 31 35 38 41 43 46 54 52 40 31 28 29 28 27 25 27 29 30 36 49 63 65 71 73 71 72 70 69 69 65 65 63 61 60 59 57 56 55 49 44 43 41 39 34 32 26 29 29 29 30 30 29 28 29 28 29 30 30 29 27 29 29 28 29 29 29 31 33 32 34 35 36 36 39 39 43 43 44 44 45 45 45 44 45 44 45 44 46 47 46 46 46 44 44 44 43 44 44 45 44 45 46 46 48 49 49 48 49 45 46 46 47 45 45 42 25 21 19 18 18 21 25 36 35 32 32 30 29 27 26 27 27 26 25 23 23 24 24 24 23 23 22 20 19 17 16 16 13 12 12 12 12 12 11 11 12 12 13 14 16 16 15 14 13 12 12 12 13 13 13 13 12 13 13 13 14 15 16 18 19 22 23 23 23 22 24 24 24 23 23 22 22 23 23 22 24 23 23 23 23 24 24 24 25 25 25 25 25 25 25 25 26 26 26 26 26 27 27 27 27 27 28 27 29 29 28 30 29 29 29 30 30 30 31 33 34 35 37 40 41 42 43 43 43 43 44 44 44 44 44 44 45 45 45 45 45 43 41 40 41 41 41 41 40 38 38 38 39 38 38 36 31 29 30 31 32 32 31 32 33 33 33 37 40 46 53 66 84 96 94 69 66 60 59 54 53 53 59 78 102 103 98 100 90 86 74 66 34 22 19 21 21 24 28 28 33 36 41 53 61 65 70 69 71 76 79 83 84 85 87 87 87 88 78 71 65 61 56 52 52 49 49 48 46 46 46 44 46 45 46 47 50 51 54 56 68 74 75 77 75 74 74 75 71 70 69 68 67 63 63 63 63 62 60 57 54 53 52 50 50 49 46 41 32 31 31 30 29 27 25 23 21 19 17 16 15 14 12 11 10 10 9 8 8 7 7 6 6 6 6 6 6 7 7 7 7 8 8 8 9 9 10 10 10 11 11 12 12 13 13 14 15 15 16 17 17 18 19 20 21 22 23 24 25 26 27 28 30 31 32 33 35 37 38 40 42 44 46 47 44 43 42 47 49 53 56 61 65 64 66 69 70 70 70 71 70 71 73 77 77 77 78 64 56 52 52 48 46 48 48 48 46 47 50 51 54 54 53 59 63 67 68 72 83 82 84 83 81 73 59 51 48 46 63 69 73 76 62 50 46 43 40 33 31 28 29 29 34 36 38 42 44 42 43 42 48 52 61 67 71 69 68 65 64 64 61 59 59 54 48 44 42 42 40 39 40 41 41 38 37 40 38 36 35 36 36 37 35 36 37 35 36 35 35 35 35 36 36 36 36 35 33 34 36 35 34 34 35 36 37 36 37 38 40 41 41 43 44 47 46 48 48 50 51 50 49 47 50 52 52 52 51 51 52 51 52 52 54 53 54 54 52 52 51 50 49 44 25 20 20 20 18 24 26 38 37 36 35 34 32 31 30 30 29 28 30 29 30 30 31 28 26 25 26 25 24 23 24 23 23 23 19 18 17 16 16 16 16 15 16 16 16 17 16 17 16 16 16 16 17 16 15 15 14 14 12 11 12 11 11 11 11 11 12 12 13 13 13 14 14 17 19 19 20 21 21 22 22 22 23 23 23 24 25 26 27 27 28 26 27 25 24 26 25 26 27 28 29 27 29 29 29 30 29 30 31 34 34 34 38 39 41 41 42 43 42 43 42 42 42 42 43 42 43 45 46 47 45 45 46 47 47 46 47 48 50 49 49 49 49 49 52 52 50 46 43 40 35 36 35 36 31 29 28 30 29 29 29 31 31 30 34 37 38 38 52 71 81 75 73 52 47 50 55 60 61 59 59 63 83 110 104 108 99 97 89 85 81 75 71 56 50 44 39 38 36 32 27 31 35 35 38 42 49 52 56 66 69 73 81 87 88 91 91 93 94 93 92 85 71 69 64 62 57 52 53 52 50 48 48 48 49 49 49 49 47 46 46 49 48 54 58 58 55 52 51 48 47 43 39 37 36 34 32 31 28 26 25 23 21 20 19 18 16 15 14 13 12 10 9 9 10 10 10 9 9 9 8 8 8 7 7 7 7 6 6 6 6 5 5 5 6 6 6 6 6 6 6 6 7 7 7 7 7 8 8 8 8 8 9 9 9 10 10 10 10 11 11 11 12 12 12 13 13 14 14 14 15 15 16 16 17 17 18 18 19 20 20 21 21 22 23 23 24 25 26 26 27 28 29 30 31 28 23 23 28 33 39 44 47 50 53 55 55 59 63 66 70 71 73 80 85 87 88 72 63 60 55 55 54 51 52 53 53 54 56 59 58 59 64 61 53 52 48 51 79 90 95 73 56 44 48 47 46 52 70 100 128 119 85 68 57 52 41 42 41 41 41 39 34 36 35 38 48 55 54 52 51 46 46 43 40 37 41 44 46 51 52 50 52 53 52 55 54 52 55 55 55 53 49 47 47 45 45 47 45 45 45 44 43 45 44 40 41 44 42 41 42 40 41 40 41 41 39 39 40 41 41 40 42 44 43 45 45 49 49 51 52 54 59 59 60 59 60 60 60 60 56 52 52 52 52 50 49 47 45 45 44 44 30 21 21 20 21 26 28 41 42 42 42 44 43 42 41 39 38 37 36 37 38 40 41 41 41 40 39 39 38 35 33 33 35 36 35 32 30 26 22 19 18 17 17 17 18 17 17 16 15 15 15 16 15 15 14 14 16 16 16 16 15 15 15 14 13 12 11 10 9 10 10 10 10 11 12 14 14 15 16 16 17 18 22 23 24 27 27 27 28 29 30 31 31 29 31 32 32 31 31 33 35 33 37 39 37 40 41 42 42 41 43 44 44 44 46 46 47 46 46 47 46 48 48 48 47 48 48 49 48 49 49 51 51 51 51 52 54 54 48 46 45 42 45 44 45 44 44 44 42 43 44 45 46 46 45 44 41 43 45 41 38 42 42 46 49 54 60 64 67 58 48 40 37 34 37 40 45 56 74 77 92 115 113 108 106 103 98 97 95 89 87 83 76 72 68 68 63 58 53 48 50 51 50 48 46 40 45 46 51 51 49 52 61 64 72 72 72 73 69 71 70 67 61 52 44 39 38 34 31 28 28 26 24 25 24 22 21 22 21 20 20 21 21 24 25 29 29 29 28 27 26 25 23 22 22 20 20 20 18 17 17 15 15 14 13 13 12 12 11 10 9 9 8 7 6 7 7 7 7 7 7 7 6 6 6 6 6 6 6 6 5 5 5 5 5 5 6 6 6 6 6 6 6 6 6 6 7 7 7 7 7 7 7 8 8 8 8 8 8 9 9 9 9 9 10 10 10 10 11 11 11 11 12 12 12 12 13 13 13 14 14 14 15 15 15 16 16 17 17 17 18 18 19 19 20 20 20 21 21 22 22 23 24 24 25 25 24 22 20 19 19 30 33 37 38 40 43 45 46 50 51 53 56 57 61 64 65 68 59 49 46 45 43 42 35 32 31 30 38 46 48 43 38 33 34 38 46 59 86 141 167 160 154 131 117 106 85 75 71 67 64 59 55 50 48 42 38 33 31 30 28 29 27 31 42 44 50 51 58 60 59 61 62 61 63 61 63 65 65 65 66 65 65 65 66 65 66 63 65 65 63 60 56 57 56 55 56 55 54 53 55 55 56 57 53 55 56 55 56 56 55 55 56 56 57 54 55 55 51 53 53 52 47 50 48 47 49 45 48 48 49 50 49 51 52 53 55 54 55 55 52 53 41 27 23 21 26 25 31 40 50 52 55 57 57 54 57 56 58 57 58 58 56 58 58 61 59 59 60 56 56 53 49 46 45 43 42 39 36 33 34 33 32 29 27 25 18 16 15 16 16 17 17 19 18 17 17 15 16 15 15 15 13 14 13 14 15 16 16 16 15 15 15 14 14 15 15 15 13 14 14 15 17 17 18 20 20 22 22 25 27 27 33 38 40 44 43 44 46 46 44 45 46 48 46 45 47 46 46 47 46 45 46 46 48 49 49 50 49 51 52 54 54 54 56 55 59 56 57 59 50 49 49 47 48 47 46 48 47 46 46 47 48 48 51 49 50 53 51 53 54 55 57 60 63 68 72 73 74 78 81 83 81 79 79 64 54 43 39 39 43 44 39 37 37 37 40 43 49 65 102 111 107 103 98 96 89 89 84 79 75 70 65 62 59 57 51 47 42 45 45 44 43 41 39 36 34 32 33 31 28 27 27 26 29 32 34 40 40 41 42 42 40 41 33 28 25 24 21 20 19 18 17 16 16 15 15 15 14 14 14 15 15 15 16 19 21 22 21 21 21 21 19 19 17 17 16 16 15 15 14 13 13 13 13 12 12 11 10 10 9 9 8 7 6 6 6 6 6 6 6 6 6 6 6 6 6 6 6 5 5 5 5 5 5 5 5 5 5 5 5 6 6 6 6 6 6 6 6 6 6 6 6 7 7 7 7 7 7 7 7 8 8 8 8 8 8 8 9 9 9 9 9 9 10 10 10 10 10 11 11 11 11 12 12 12 12 13 13 13 13 14 14 14 14 15 15 15 16 16 16 17 17 17 18 18 18 19 19 20 20 20 21 21 21 22 22 23 24 24 23 21 20 20 19 20 22 29 33 35 39 40 41 44 49 50 47 41 38 38 36 48 57 44 27 23 22 22 23 25 28 37 53 65 70 67 65 65 61 60 63 56 55 50 48 40 35 33 39 33 34 33 34 35 40 42 49 53 51 53 51 52 54 66 80 85 82 77 78 76 69 64 65 65 76 74 75 76 78 80 77 83 81 85 82 86 83 84 85 86 87 88 89 83 80 81 80 80 79 80 78 75 76 75 75 74 69 65 61 60 60 59 56 58 58 57 56 54 55 55 52 52 53 54 55 55 54 53 54 52 53 53 55 62 66 49 35 34 32 37 38 53 67 73 72 74 69 72 72 72 72 71 72 69 66 65 69 63 64 61 66 65 69 65 67 68 65 65 63 65 59 57 54 51 47 44 43 36 36 34 33 31 27 26 24 17 17 17 17 18 17 17 16 15 15 15 16 16 16 16 16 17 17 18 20 22 22 22 23 25 26 27 29 28 30 30 30 28 27 28 31 30 29 32 33 35 36 39 40 39 40 41 45 49 53 53 54 54 54 58 57 59 59 61 59 59 58 60 60 59 59 54 51 51 52 50 51 53 52 55 53 53 54 56 57 56 56 55 60 56 58 59 63 62 67 66 70 68 75 74 74 75 72 72 74 76 73 74 73 76 74 64 64 56 56 52 53 49 47 48 37 29 28 27 23 20 21 23 28 33 37 48 71 70 67 65 63 60 56 54 51 50 49 44 40 37 36 38 37 39 38 38 37 35 34 32 30 29 31 28 26 26 25 21 21 22 23 24 26 27 28 30 31 28 22 20 18 16 15 14 14 14 14 12 12 12 13 12 12 12 13 13 13 14 15 19 19 19 19 19 18 17 16 16 15 15 15 14 13 13 13 12 12 12 12 11 11 10 10 9 9 8 7 6 5 5 5 6 6 6 6 6 6 6 6 6 6 6 6 5 5 5 5 5 5 5 5 5 5 5 5 5 5 5 5 6 6 6 6 6 6 6 6 6 6 6 6 6 7 7 7 7 7 7 7 7 7 8 8 8 8 8 8 8 9 9 9 9 9 9 9 10 10 10 10 10 10 11 11 11 11 11 12 12 12 12 12 13 13 13 13 14 14 14 14 15 15 15 15 16 16 16 17 17 17 18 18 18 18 19 19 20 20 20 21 21 21 22 22 23 23 24 24 24 25 25 23 22 21 19 16 16 18 18 19 30 39 36 31 32 34 34 35 39 44 49 60 75 82 74 62 43 35 28 27 26 25 23 23 22 22 21 19 21 22 22 25 28 33 34 42 43 44 45 48 47 48 47 48 48 50 53 51 57 65 74 79 81 82 82 84 84 85 86 86 90 90 81 75 82 88 99 105 104 110 110 113 117 113 109 103 102 101 100 102 98 95 89 86 83 84 82 80 79 76 83 79 80 81 78 75 75 77 78 78 82 86 89 91 89 93 92 93 90 88 87 81 77 67 45 41 40 42 44 46 70 73 75 77 74 76 75 83 84 83 81 82 83 84 82 82 81 80 80 81 86 86 83 81 82 83 85 90 85 84 85 84 79 81 75 67 66 59 57 52 51 47 46 35 33 29 24 24 22 18 17 18 17 18 20 24 29 29 28 29 29 29 29 30 31 32 34 38 42 43 44 45 48 47 50 48 46 47 47 43 38 41 40 39 42 42 45 44 46 50 53 53 53 53 52 55 52 54 55 57 59 58 57 58 56 57 56 53 53 51 49 48 48 47 48 48 47 49 51 50 53 55 53 54 60 60 62 59 61 61 59 56 57 57 59 57 59 59 59 59 52 47 46 43 42 39 37 38 37 38 38 42 45 50 60 59 60 51 33 25 16 12 13 14 16 19 25 41 55 52 50 49 47 45 41 39 35 35 38 39 38 39 37 38 37 35 34 32 30 28 29 29 29 27 27 26 27 25 25 24 23 20 19 21 23 23 18 14 14 14 13 13 12 12 12 12 12 11 11 11 12 12 12 12 13 13 14 16 19 19 18 19 18 17 16 16 16 15 14 14 14 14 14 13 13 12 12 12 11 11 11 10 10 9 8 7 6 5 5 6 6 6 6 6 6 6 6 6 6 6 6 6 6 5 5 5 5 5 5 5 5 5 5 5 5 5 5 5 5 5 5 5 5 6 6 6 6 6 6 6 6 6 6 6 6 6 6 7 7 7 7 7 7 7 7 7 7 8 8 8 8 8 8 8 8 9 9 9 9 9 9 9 10 10 10 10 10 10 11 11 11 11 11 11 12 12 12 12 13 13 13 13 13 14 14 14 14 14 15 15 15 16 16 16 16 17 17 17 18 18 18 19 19 19 19 20 20 21 21 21 22 22 22 23 23 24 24 24 22 19 18 17 16 18 24 27 28 21 20 18 17 16 17 23 28 31 30 25 27 28 34 36 34 35 35 33 34 33 34 38 44 35 34 33 30 32 32 28 29 27 26 24 24 28 27 28 30 33 33 35 36 41 51 53 54 55 60 60 64 66 71 84 93 94 97 96 95 92 81 83 81 84 87 84 83 83 80 80 78 73 71 65 71 76 85 87 89 88 90 95 94 101 107 119 122 114 118 119 115 121 122 113 116 118 120 125 130 132 132 123 124 124 123 122 129 126 101 73 59 53 48 55 68 89 102 102 98 95 94 94 93 96 97 96 98 97 102 102 106 106 104 107 113 112 115 122 121 115 124 123 123 125 123 120 123 118 117 113 113 107 107 106 92 89 89 93 94 101 91 76 62 57 55 50 45 42 39 35 32 32 33 35 34 37 43 48 45 43 43 43 42 42 42 43 46 50 51 55 55 57 58 57 56 55 53 49 42 40 37 33 31 29 30 30 33 35 33 34 32 34 32 33 32 32 32 35 37 40 43 45 46 47 47 49 50 51 49 51 51 49 49 50 48 50 49 49 52 52 52 53 54 53 53 48 45 41 42 39 38 38 36 35 34 34 35 34 35 36 37 37 43 47 50 62 65 69 67 65 51 22 15 12 11 11 12 13 16 25 42 42 39 38 41 43 43 43 42 42 42 40 38 37 36 34 33 32 31 30 32 30 29 28 28 27 26 28 29 28 26 25 23 21 13 12 11 10 10 10 11 11 11 12 11 11 11 12 12 12 13 13 14 14 15 18 20 20 20 18 18 17 17 16 16 16 16 15 15 15 14 14 13 13 13 12 12 12 11 11 10 9 9 7 6 6 6 6 6 6 7 7 6 6 6 6 6 6 6 6 6 6 6 6 6 6 5 5 5 5 5 5 5 5 5 5 5 5 5 5 5 5 5 5 5 5 5 5 6 6 6 6 6 6 6 6 6 6 6 6 6 6 7 7 7 7 7 7 7 7 7 7 8 8 8 8 8 8 8 8 9 9 9 9 9 9 9 10 10 10 10 10 10 11 11 11 11 11 11 12 12 12 12 12 13 13 13 13 14 14 14 14 14 15 15 15 15 16 16 16 17 17 17 17 18 18 18 19 19 19 20 20 20 21 21 21 22 22 22 23 23 24 24 24 23 19 18 17 16 17 21 24 25 28 29 26 29 30 30 25 16 16 16 17 17 14 14 13 12 11 13 13 16 20 24 27 31 33 35 38 42 44 47 50 54 59 57 61 60 61 59 51 46 43 41 40 38 37 38 37 37 41 42 41 38 36 37 37 38 38 43 44 56 57 60 70 75 82 85 88 88 86 87 87 86 91 94 104 110 114 117 118 123 130 127 130 130 129 125 121 117 113 103 100 107 117 118 121 125 124 123 120 118 116 117 120 114 115 119 117 117 119 90 67 62 64 67 71 90 120 125 128 127 129 127 119 125 129 124 125 129 133 138 135 139 138 141 147 147 149 156 166 181 176 183 184 188 198 229 234 227 221 207 190 180 169 164 148 138 128 126 127 128 131 131 125 111 100 88 77 69 61 56 48 43 40 36 34 32 29 27 28 28 29 32 38 36 34 32 31 31 32 32 33 35 35 37 39 40 41 43 40 38 37 38 33 31 30 28 28 29 27 26 31 33 36 38 37 37 37 36 36 36 34 37 41 43 46 47 47 49 49 47 47 48 49 49 45 40 38 38 40 38 36 37 35 36 36 35 35 35 35 37 38 38 42 42 42 45 47 50 55 58 61 69 70 68 60 47 36 25 22 19 15 12 10 13 17 21 30 40 50 51 49 48 48 47 44 43 41 39 38 37 37 35 35 34 32 33 33 31 29 32 31 31 29 29 25 19 16 15 14 12 10 9 10 10 10 10 10 12 13 13 14 14 14 15 16 18 20 21 23 20 20 19 19 19 19 18 18 18 17 17 16 16 16 15 15 14 14 13 13 12 12 11 11 10 9 7 6 6 6 6 6 7 7 7 7 7 7 7 7 7 6 6 6 6 6 6 6 6 6 6 6 6 6 6 5 5 5 5 5 5 5 5 5 5 5 5 5 5 5 5 5 5 5 5 5 5 6 6 6 6 6 6 6 6 6 6 6 6 6 6 7 7 7 7 7 7 7 7 7 7 8 8 8 8 8 8 8 8 9 9 9 9 9 9 9 10 10 10 10 10 10 11 11 11 11 11 12 12 12 12 12 13 13 13 13 13 14 14 14 14 15 15 15 15 16 16 16 17 17 17 17 18 18 18 19 19 19 20 20 20 21 21 21 22 22 23 23 23 24 24 25 25 25 26 26 26 23 20 19 18 17 18 21 26 28 33 39 41 37 24 20 17 16 15 15 16 17 15 13 10 10 12 14 15 18 20 24 29 31 31 33 34 35 29 30 30 31 34 41 49 57 59 62 64 68 70 73 68 67 66 61 58 61 58 59 57 55 47 49 47 43 38 41 41 39 43 45 47 51 54 58 62 60 65 73 79 84 105 131 146 143 144 138 137 143 136 140 138 138 139 142 138 144 144 151 155 150 149 156 150 151 152 158 153 153 151 144 135 123 114 118 125 124 92 70 68 55 57 64 83 112 119 119 115 116 114 113 109 109 104 109 112 113 118 132 130 129 126 124 124 116 118 113 120 120 120 117 118 120 113 116 114 115 114 115 111 111 112 108 115 112 104 106 110 107 112 110 103 97 91 84 69 61 60 59 55 49 46 43 40 35 29 27 23 22 20 18 18 20 23 25 25 32 32 33 34 36 36 38 40 45 48 47 51 50 49 49 48 42 38 39 37 36 35 35 35 34 42 44 44 41 40 40 39 35 32 30 29 33 35 36 34 37 36 37 35 35 36 36 36 35 36 38 39 41 44 46 48 47 51 53 58 60 61 62 63 65 67 68 68 66 53 46 39 32 30 32 29 28 27 27 27 23 25 29 41 45 49 51 55 50 48 47 47 47 47 42 41 40 41 39 36 36 39 38 38 32 25 22 19 18 17 15 17 15 15 15 13 11 11 12 12 13 14 15 16 19 21 23 24 23 25 24 24 24 24 23 22 22 22 21 21 20 19 19 19 18 17 16 16 16 15 14 13 12 12 11 10 8 7 7 7 7 8 8 8 8 8 8 8 8 8 8 7 7 7 7 7 7 7 7 7 7 6 6 6 6 6 6 6 6 6 6 6 6 6 6 5 5 5 5 5 5 5 5 5 5 5 5 5 5 5 5 5 5 5 5 6 6 6 6 6 6 6 6 6 6 6 6 6 7 7 7 7 7 7 7 7 7 8 8 8 8 8 8 8 8 9 9 9 9 9 9 10 10 10 10 10 10 11 11 11 11 11 12 12 12 12 12 13 13 13 13 14 14 14 14 15 15 15 15 16 16 16 17 17 17 18 18 18 19 19 19 20 20 20 21 21 21 22 22 23 23 24 24 25 25 25 26 26 27 27 28 28 29 29 30 31 31 32 32 27 24 22 21 20 19 22 31 41 46 41 35 29 23 22 21 19 17 17 18 20 19 12 13 15 17 19 20 21 23 24 27 30 30 32 42 47 52 54 56 55 54 54 52 51 50 50 50 49 49 47 43 40 39 40 46 48 63 68 79 89 90 86 98 96 101 100 106 106 111 109 116 116 109 109 100 85 81 75 73 69 67 68 66 66 63 64 67 69 73 80 82 84 82 90 96 109 129 140 139 136 139 132 134 132 126 129 124 125 126 126 125 124 128 126 122 88 67 60 59 54 60 90 125 129 123 112 97 92 95 97 104 95 93 89 91 89 94 94 91 87 85 85 82 79 76 79 78 82 79 82 77 77 74 77 74 76 73 73 62 62 57 58 55 51 52 55 54 53 57 55 49 48 48 45 42 39 36 37 35 35 34 35 32 32 29 29 30 30 30 30 25 21 19 22 23 26 26 28 34 37 39 42 44 48 53 54 55 57 56 52 50 49 47 43 40 37 35 35 33 34 32 36 39 41 38 38 35 32 31 30 29 31 34 38 41 42 46 49 49 54 55 57 60 62 64 69 71 72 72 69 68 67 72 73 74 81 78 73 68 57 53 52 49 49 47 48 43 43 39 37 38 42 51 57 57 58 59 62 61 57 57 53 52 55 49 41 33 31 28 25 24 23 22 22 22 23 22 21 21 22 20 20 18 17 18 21 18 25 29 30 32 32 32 31 31 30 30 29 28 28 27 26 26 24 24 23 23 21 21 20 19 18 17 16 15 14 13 11 9 9 9 9 9 10 11 11 10 10 10 10 10 10 9 9 9 9 9 9 9 8 8 8 8 8 8 8 7 7 7 7 7 7 7 7 7 6 6 6 6 6 6 6 6 6 6 6 6 6 5 5 5 5 5 5 5 5 5 5 5 5 5 5 5 5 6 6 6 6 6 6 6 6 6 6 6 6 7 7 7 7 7 7 7 7 7 8 8 8 8 8 8 9 9 9 9 9 9 10 10 10 10 10 11 11 11 11 11 12 12 12 12 13 13 13 13 14 14 14 15 15 15 15 16 16 16 17 17 17 18 18 18 19 19 20 20 21 21 21 22 22 23 23 24 24 25 25 26 26 27 27 28 28 29 29 30 31 31 32 33 33 34 35 35 36 37 38 38 39 40 41 41 42 43 44 36 33 30 28 27 26 32 38 54 53 45 36 31 28 22 21 19 18 18 27 32 31 29 28 28 28 29 31 33 41 41 43 44 42 43 39 39 40 40 40 40 41 47 49 49 53 55 56 59 61 63 67 68 74 78 77 77 79 75 76 73 69 68 68 62 55 52 49 54 58 54 53 58 63 65 68 69 69 72 72 72 70 70 74 74 75 77 72 81 79 78 73 61 54 59 59 62 60 60 62 67 65 64 66 68 69 74 81 88 94 98 110 131 147 144 115 77 84 68 66 64 74 103 118 116 113 114 112 106 102 105 104 104 105 105 94 85 80 73 74 63 56 49 42 41 43 44 47 47 47 47 47 49 48 46 46 46 45 44 42 43 41 40 40 40 41 42 41 40 38 35 34 37 36 35 36 34 33 31 30 30 31 30 31 31 29 30 26 25 24 26 26 26 25 25 24 18 16 17 17 18 17 22 26 28 28 30 32 34 33 31 29 28 25 25 23 25 25 27 27 28 32 35 42 44 46 48 47 49 50 49 45 47 50 46 48 52 59 72 79 95 90 97 100 100 110 118 114 117 124 120 108 102 96 92 85 76 72 68 67 67 70 65 60 61 77 87 82 83 70 65 67 58 57 50 46 43 43 39 40 37 36 34 37 34 37 38 36 35 31 38 39 43 42 38 37 39 39 40 40 42 43 45 43 43 41 40 39 38 37 35 34 32 32 30 28 26 26 23 21 21 20 17 15 13 13 13 13 14 15 16 15 15 15 14 14 14 14 13 13 13 13 12 12 12 12 11 11 11 11 10 10 10 10 10 9 9 9 9 9 9 8 8 8 8 8 8 8 7 7 7 7 7 7 7 7 6 6 6 6 6 6 6 6 6 6 6 6 5 5 5 5 5 5 5 5 5 5 5 5 6 6 6 6 6 6 6 6 6 6 7 7 7 7 7 7 7 8 8 8 8 8 9 9 9 9 9 10 10 10 10 10 11 11 11 11 12 12 12 13 13 13 14 14 14 14 15 15 16 16 16 17 17 18 18 18 19 19 20 20 21 21 22 22 23 23 24 24 25 26 26 27 27 28 29 30 30 31 32 32 33 34 35 35 36 37 38 39 40 41 42 43 44 45 46 47 48 49 51 52 53 54 56 57 58 60 61 62 64 66 67 69 70 70 70 58 49 44 42 39 43 57 65 66 50 40 30 26 23 20 18 15 14 14 14 26 32 39 39 43 44 39 35 28 26 23 22 24 24 26 26 27 28 29 29 33 36 38 39 40 50 47 52 49 48 52 51 53 50 51 54 51 54 52 51 52 56 52 54 54 54 52 53 54 53 53 55 54 54 53 56 56 55 54 44 42 38 38 47 47 46 49 52 60 64 67 72 80 89 86 89 84 87 91 84 87 87 89 93 91 88 93 87 79 75 76 73 71 74 62 44 38 29 27 28 29 46 61 62 58 56 60 65 69 78 73 69 72 72 74 72 71 71 67 65 59 58 55 55 52 56 54 51 51 49 48 47 46 50 48 49 49 47 41 38 37 39 40 40 41 42 39 36 34 31 29 27 26 27 27 25 26 25 23 22 22 23 21 20 20 20 18 19 18 17 18 15 15 15 15 16 15 17 17 15 13 11 13 15 17 19 23 25 26 28 29 28 29 30 28 26 23 24 24 29 32 38 42 45 48 48 52 55 53 52 48 49 51 50 48 49 54 60 66 77 90 91 99 95 101 94 95 90 96 93 93 82 72 65 55 58 58 60 68 74 70 69 68 75 75 72 71 67 69 65 68 77 86 84 96 100 104 102 97 91 85 80 73 66 65 65 66 68 69 72 74 73 71 68 65 63 58 56 54 50 49 45 43 40 35 33 29 25 23 24 24 25 26 28 28 27 26 26 25 25 24 24 23 22 22 21 21 20 20 20 19 19 18 18 17 17 17 16 16 15 15 15 14 14 14 13 13 13 12 12 12 12 11 11 11 11 10 10 10 10 9 9 9 9 9 8 8 8 8 8 8 7 7 7 7 7 7 7 6 6 6 6 6 6 6 6 6 6 5 5 5 5 5 5 6 6 6 6 6 6 6 6 7 7 7 7 7 8 8 8 8 8 9 9 9 9 10 10 10 11 11 11 12 12 12 13 13 13 14 14 15 15 16 16 17 17 18 18 19 19 20 20 21 22 22 23 24 25 25 26 27 28 29 30 30 31 32 33 34 35 36 37 39 40 41 43 44 45 46 48 49 50 52 54 55 57 59 60 60 60 60 60 60 60 60 60 60 60 60 60 60 60 60 60 60 60 60 60 60 60 60 60 60 60 60 60 60 60 60 60 60 60 60 60 59 47 42 38 35 33 47 57 62 66 42 19 16 12 12 12 11 10 9 8 7 10 13 18 23 27 27 28 27 29 26 29 28 30 29 32 27 30 34 31 31 28 28 28 29 27 30 28 32 33 34 33 34 35 38 37 37 40 39 41 46 47 48 49 47 49 49 48 50 51 50 52 53 54 54 52 60 66 66 71 74 72 71 72 73 71 71 73 72 72 68 64 61 60 56 51 49 46 50 58 61 60 58 60 60 64 69 67 62 61 60 60 58 57 57 53 33 33 33 26 30 34 51 58 53 48 43 41 36 35 33 30 29 31 33 32 33 36 40 39 39 43 42 45 51 62 71 69 74 76 74 73 74 71 72 70 67 62 59 56 54 52 49 46 44 42 40 33 29 26 23 21 19 19 17 13 13 13 13 13 14 13 12 13 13 12 13 13 14 13 14 16 14 16 16 16 18 17 19 21 19 24 23 23 24 23 24 23 25 27 26 27 29 28 30 30 29 28 28 28 31 30 33 35 34 36 36 36 33 33 38 43 70 84 65 58 47 46 47 51 55 57 59 55 56 52 47 48 46 47 53 59 74 80 90 93 102 115 116 108 101 102 96 94 94 84 84 83 80 74 73 67 64 65 67 68 70 74 83 80 81 80 74 75 74 68 65 63 58 55 45 43 45 47 51 54 60 60 60 60 60 60 60 60 60 59 57 56 54 52 51 49 48 47 45 44 43 42 40 39 38 37 36 35 33 33 32 31 30 29 28 27 26 26 25 24 23 23 22 21 21 20 20 19 18 18 17 17 16 16 15 15 14 14 14 13 13 12 12 12 11 11 11 10 10 10 10 9 9 9 8 8 8 8 8 7 7 7 7 7 6 6 6 6 6 6 6 6 5 5 6 6 6 6 6 7 7 7 7 8 8 8 9 9 9 10 10 11 11 12 12 13 13 14 14 15 16 17 17 18 19 20 21 21 22 24 25 26 27 28 29 31 32 33 35 36 38 40 41 43 45 47 49 51 53 54 54 54 54 54 54 54 54 54 54 54 54 54 54 54 54 54 54 54 54 54 54 54 54 54 54 54 54 54 54 54 54 54 54 54 54 54 54 54 54 54 54 54 54 54 54 54 54 54 54 54 54 54 54 54 54 54 54 54 54 54 54 54 54 54 54 54 54 54 54 51 42 38 34 32 37 48 52 55 44 27 17 12 8 7 5 4 4 3 3 5 6 6 6 9 12 14 22 27 29 27 30 32 29 31 28 29 26 27 28 31 30 30 29 31 29 29 28 29 29 29 30 30 30 32 33 34 35 38 38 38 42 47 52 52 57 60 60 64 69 70 69 71 70 70 69 69 69 69 69 67 68 68 68 66 65 65 65 66 65 65 60 57 56 55 54 51 51 50 49 47 45 41 41 39 40 38 38 38 36 34 32 32 36 39 33 24 21 17 19 20 25 42 50 53 50 49 53 53 49 49 51 51 50 49 49 49 52 56 51 45 40 39 35 32 34 35 36 36 38 36 32 31 30 30 30 30 32 33 35 39 42 45 43 44 38 34 31 28 27 24 24 22 22 23 22 22 22 20 19 18 19 20 22 22 20 19 19 18 18 17 15 15 17 20 21 25 25 28 28 31 34 35 33 30 30 28 21 18 14 14 15 15 13 12 11 12 14 15 15 14 14 16 20 24 34 39 46 50 54 54 56 57 64 62 59 58 71 93 82 85 91 124 136 135 126 123 114 109 95 84 75 69 64 60 60 56 53 48 47 50 53 56 57 63 64 64 60 58 53 50 39 39 40 43 46 50 54 54 54 54 54 54 54 54 54 54 54 54 54 54 54 54 54 54 54 54 54 54 54 54 54 54 54 54 54 54 54 54 54 54 54 54 54 54 54 54 54 54 54 54 54 54 54 54 54 54 54 54 54 54 54 54 52 49 47 46 44 42 40 38 37 35 33 32 31 30 28 27 26 25 24 23 22 21 20 19 18 17 17 16 15 15 14 13 13 12 12 11 11 10 10 10 9 9 8 8 8 7 7 7 7 6 6 6 6 6 6 7 7 8 8 9 10 10 11 12 14 15 16 17 19 21 23 25 27 29 32 35 38 41 45 49 50 50 50 50 50 51 51 51 51 51 50 50 50 50 50 51 51 51 51 51 50 50 50 50 50 51 51 51 51 51 50 50 50 50 50 51 51 51 51 51 50 50 50 50 50 51 51 51 51 51 50 50 50 50 50 51 51 51 51 51 50 50 50 50 50 50 51 51 51 51 51 50 50 50 50 50 51 51 51 51 51 50 50 50 50 50 51 51 51 51 51 50 50 50 50 50 51 51 51 51 51 50 46 39 35 33 31 38 33 31 26 23 20 18 13 7 6 4 3 2 2 2 2 2 2 1 2 5 10 12 13 14 17 21 23 28 31 34 36 34 35 34 33 34 35 34 35 37 36 39 43 49 50 49 51 53 52 52 53 52 54 53 52 52 53 52 53 54 54 55 55 54 54 54 55 55 52 51 50 49 51 52 52 49 49 50 49 50 48 50 49 49 49 48 47 47 48 48 48 48 48 49 49 51 53 52 55 56 57 58 57 58 55 50 49 46 44 33 26 21 19 19 19 21 33 37 34 31 28 30 31 32 31 29 30 28 25 25 25 27 31 33 33 34 35 38 41 42 45 46 45 43 43 42 42 41 43 38 33 31 27 25 23 23 24 21 22 22 22 22 22 22 22 22 23 24 28 29 30 36 36 34 34 34 34 34 34 34 32 29 28 26 24 23 24 22 19 18 19 18 16 15 15 15 11 8 9 7 6 7 6 9 12 11 12 13 15 17 18 27 35 52 66 68 79 98 110 106 109 116 102 96 94 109 108 129 116 117 104 102 100 98 63 29 28 26 25 28 32 36 41 45 46 39 36 38 40 42 48 50 51 51 51 51 51 50 50 50 50 50 51 51 51 51 51 50 50 50 50 50 51 51 51 51 51 50 50 50 50 50 50 51 51 51 51 50 50 50 50 50 50 51 51 51 51 51 50 50 50 50 50 51 51 51 51 51 50 50 50 50 50 51 51 51 51 51 50 50 50 50 50 51 51 51 51 51 50 50 50 50 50 51 51 51 51 51 50 50 50 50 50 51 51 51 51 51 50 50 50 50 49 45 42 38 35 32 29 27 25 23 21 19 18 16 15 14 13 11 10 10 9 8 8 7 7 6 49 49 49 49 49 49 49 49 49 49 49 49 49 49 49 49 49 49 49 49 49 49 49 49 49 49 49 49 49 49 49 49 49 49 49 49 49 49 49 49 49 49 49 49 49 49 49 49 49 49 49 49 49 49 49 49 49 49 49 49 49 49 49 49 49 49 49 49 49 49 49 49 49 49 49 49 49 49 49 49 49 49 49 49 49 49 49 49 49 49 49 49 49 49 49 49 49 49 49 49 49 49 49 49 49 49 49 49 49 49 49 49 49 49 49 49 49 49 49 49 49 49 49 49 49 49 49 49 49 49 41 30 23 22 25 28 31 31 27 17 16 12 9 5 4 2 1 0 0 0 0 0 1 3 4 4 5 7 9 14 15 17 19 22 25 29 37 41 47 55 64 67 66 65 64 64 64 63 62 64 64 62 61 61 59 57 57 57 58 54 50 47 44 43 40 39 38 38 38 39 38 39 40 40 40 40 40 40 41 41 43 41 42 43 43 45 48 51 53 55 59 61 60 60 61 61 59 58 57 57 57 55 56 56 55 54 55 54 53 53 53 53 53 53 52 51 34 25 21 20 20 20 22 36 35 34 32 27 21 18 18 18 18 18 18 18 18 17 16 16 17 17 23 27 31 34 40 44 47 47 50 53 56 60 61 63 62 56 55 52 45 44 42 41 41 40 39 38 38 33 33 28 21 18 15 13 11 10 9 7 8 7 8 7 7 6 6 7 7 7 8 11 16 24 27 33 43 41 40 34 32 33 30 27 26 24 27 39 39 44 48 52 54 59 64 65 57 55 39 31 32 43 90 142 177 151 142 136 115 59 48 36 28 22 11 8 12 17 23 37 49 49 49 49 49 49 49 49 49 49 49 49 49 49 49 49 49 49 49 49 49 49 49 49 49 49 49 49 49 49 49 49 49 49 49 49 49 49 49 49 49 49 49 49 49 49 49 49 49 49 49 49 49 49 49 49 49 49 49 49 49 49 49 49 49 49 49 49 49 49 49 49 49 49 49 49 49 49 49 49 49 49 49 49 49 49 49 49 49 49 49 49 49 49 49 49 49 49 49 49 49 49 49 49 49 49 49 49 49 49 49 49 49 49 49 49 49 49 49 49 49 49 49 49 49 49 49 49 49 49 49 49 49 49 49 49 49 49 49 49 49 49 6 7 7 8 8 9 10 10 11 12 14 15 16 18 19 21 23 25 27 29 32 35 38 42 45 49 50 50 50 50 50 51 51 51 51 51 50 50 50 50 50 51 51 51 51 51 50 50 50 50 50 51 51 51 51 51 50 50 50 50 50 51 51 51 51 51 50 50 50 50 50 51 51 51 51 51 50 50 50 50 50 51 51 51 51 51 50 50 50 50 50 50 51 51 51 51 50 50 50 50 50 50 51 51 51 51 51 50 50 50 50 50 51 51 51 51 51 50 50 50 50 50 51 51 51 51 51 46 39 35 34 42 41 45 39 32 27 24 19 14 10 9 7 7 5 4 3 2 2 1 1 1 1 2 3 4 6 8 13 17 21 22 27 31 34 35 36 37 38 38 39 41 43 45 47 50 50 48 50 52 56 53 52 50 49 47 48 49 47 49 49 48 48 48 49 48 49 48 45 47 48 50 48 53 52 55 56 54 54 51 53 52 53 52 53 53 52 51 51 51 50 50 49 50 51 51 51 51 50 50 51 51 51 48 51 51 50 48 45 46 45 45 44 44 44 44 43 43 44 39 23 18 17 18 23 25 28 45 45 45 39 38 37 36 38 39 38 37 35 35 35 36 35 36 41 43 44 46 44 46 43 44 44 42 36 31 26 21 17 17 15 14 13 12 12 12 13 15 15 16 15 16 16 18 19 22 24 29 34 32 30 29 27 28 26 28 27 28 29 30 28 29 35 35 33 33 28 26 22 21 19 16 16 17 17 18 17 17 18 19 15 15 21 26 31 41 54 67 71 68 66 60 59 61 73 77 75 86 110 135 123 125 95 83 71 56 42 26 12 11 14 19 29 49 50 50 51 51 51 51 51 50 50 50 50 50 51 51 51 51 51 50 50 50 50 50 51 51 51 51 51 50 50 50 50 50 51 51 51 51 51 50 50 50 50 50 51 51 51 51 51 50 50 50 50 50 50 51 51 51 51 51 50 50 50 50 50 51 51 51 51 51 50 50 50 50 50 51 51 51 51 51 50 50 50 50 50 51 51 51 51 51 50 50 50 50 50 51 51 51 51 51 50 50 50 50 50 51 51 51 51 51 50 50 50 50 49 45 41 38 35 32 29 27 25 23 21 19 17 16 15 14 12 11 10 10 9 8 8 7 7 6 6 6 6 6 6 7 7 7 7 8 8 8 9 9 9 10 10 11 11 12 12 13 13 14 14 15 16 17 17 18 19 20 21 22 23 24 25 26 27 28 30 31 32 33 35 37 38 40 42 43 46 47 49 52 54 54 54 54 54 54 54 54 54 54 54 54 54 54 54 54 54 54 54 54 54 54 54 54 54 54 54 54 54 54 54 54 54 54 54 54 54 54 54 54 54 54 54 54 54 54 54 54 54 54 54 54 54 54 54 54 54 54 54 54 54 54 54 54 54 54 54 54 54 54 52 41 37 34 35 45 54 57 58 53 39 25 20 15 12 9 8 6 3 3 5 6 6 7 6 8 10 12 10 11 14 16 19 21 21 21 21 26 30 29 29 30 27 27 25 26 25 25 25 25 27 30 29 30 31 32 34 35 36 38 39 41 43 44 48 53 58 69 71 69 70 71 70 69 67 69 67 67 67 65 65 64 64 64 63 61 61 63 63 60 61 62 62 59 57 51 48 48 46 45 45 43 45 41 43 42 41 40 35 35 35 39 40 43 45 46 44 46 48 51 53 56 58 60 69 72 74 80 78 52 40 41 39 41 44 50 77 71 69 64 57 46 35 30 29 29 29 28 26 25 24 26 26 27 27 28 26 25 25 23 27 27 26 29 35 29 25 23 21 21 19 18 17 18 19 17 16 18 17 17 17 18 20 22 26 25 25 27 28 27 31 31 28 29 31 32 32 31 34 37 38 31 29 32 28 28 27 25 21 19 20 19 17 13 11 13 18 18 20 20 18 19 21 23 27 34 35 35 35 42 45 53 66 74 78 84 83 75 79 91 111 132 133 132 123 110 105 102 79 48 42 36 35 39 48 53 57 62 63 58 47 41 37 39 41 44 49 54 54 54 54 54 54 54 54 54 54 54 54 54 54 54 54 54 54 54 54 54 54 54 54 54 54 54 54 54 54 54 54 54 54 54 54 54 54 54 54 54 54 54 54 54 54 54 54 54 54 54 54 54 54 54 54 54 54 54 54 54 54 54 54 54 54 54 51 49 47 45 43 41 40 38 36 35 33 32 31 29 28 27 26 25 24 23 21 21 20 19 18 17 16 16 15 14 14 13 13 12 12 11 11 10 10 9 9 9 8 8 8 7 7 7 7 6 6 6 6 6 5 5 6 6 6 6 6 6 6 7 7 7 7 7 7 8 8 8 8 9 9 9 9 10 10 10 10 11 11 11 12 12 12 13 13 14 14 14 15 15 16 16 17 17 18 18 19 20 20 21 21 22 23 23 24 25 26 26 27 28 29 30 31 32 33 33 34 36 37 38 39 40 41 43 44 45 46 48 49 51 53 54 56 58 59 60 60 60 60 60 60 60 60 60 60 60 60 60 60 60 60 60 60 60 60 60 60 60 60 60 60 60 60 60 60 60 60 60 60 60 60 57 46 40 36 34 40 56 61 70 75 69 43 27 20 15 13 12 11 10 9 9 13 14 16 18 18 17 17 20 23 25 24 25 25 22 21 20 17 16 16 17 17 17 19 23 23 24 24 25 24 26 26 27 29 33 33 36 40 43 43 43 45 45 47 48 49 49 49 50 50 53 52 52 55 58 58 60 63 65 67 67 76 75 73 71 66 65 62 62 60 57 55 53 50 46 49 56 57 57 57 58 60 61 63 62 65 66 67 71 73 73 73 76 77 80 78 83 88 84 87 83 81 79 78 73 67 62 60 57 47 47 47 45 45 41 26 20 20 18 20 19 28 46 46 43 44 50 55 59 57 53 47 44 44 44 46 47 47 46 49 51 52 51 50 45 43 39 34 34 33 30 26 24 23 21 20 21 20 18 18 18 17 16 17 16 13 13 14 13 14 14 14 13 14 16 16 18 18 18 18 19 21 23 19 16 18 18 20 21 22 26 29 26 29 32 35 35 36 41 44 43 44 39 41 43 39 40 42 39 46 49 60 59 57 60 64 65 56 52 55 53 50 56 54 54 51 50 50 56 76 87 95 97 103 112 109 98 94 73 71 70 69 70 60 60 62 65 66 70 78 82 81 82 79 77 76 73 69 64 58 48 43 44 46 49 53 56 59 60 60 60 60 60 60 60 60 60 60 60 60 60 60 60 60 60 60 59 57 56 54 52 51 49 48 46 45 44 42 41 40 39 38 36 35 34 33 32 31 30 30 29 28 27 26 25 25 24 23 22 22 21 21 20 19 19 18 18 17 17 16 16 15 15 14 14 13 13 13 12 12 12 11 11 11 10 10 10 10 9 9 9 8 8 8 8 8 7 7 7 7 7 6 6 6 6 6 6 6 6 5 5 5 5 5 5 6 6 6 6 6 6 6 6 6 6 7 7 7 7 7 7 7 8 8 8 8 8 8 9 9 9 9 9 10 10 10 10 11 11 11 11 12 12 12 12 13 13 13 14 14 14 15 15 15 16 16 16 17 17 18 18 18 19 19 20 20 21 21 22 22 23 24 24 25 25 26 26 27 28 28 29 30 31 31 32 33 33 34 35 36 37 38 39 40 41 42 42 43 44 46 47 47 49 50 51 52 54 55 56 57 59 60 62 63 65 66 68 70 70 65 52 46 42 39 41 50 65 80 85 90 71 46 34 27 23 19 18 19 19 19 21 32 36 39 40 39 33 29 26 21 20 17 18 17 17 17 17 19 21 21 22 22 23 25 24 27 26 32 33 34 37 38 39 40 41 42 44 46 45 45 45 47 49 48 50 50 51 51 52 53 54 53 53 51 48 49 40 37 40 39 47 49 50 54 51 55 58 61 64 67 71 72 79 83 87 94 99 98 106 105 105 108 114 113 126 121 117 104 91 87 83 77 77 78 70 67 70 64 64 64 58 56 58 56 63 67 64 70 75 81 95 94 82 85 85 85 82 79 76 79 58 37 34 30 34 38 39 56 61 60 58 59 55 54 53 49 48 46 49 44 44 47 45 44 43 39 36 32 28 26 27 28 30 29 27 26 26 24 24 24 24 25 23 24 22 22 20 16 15 14 15 14 14 15 12 14 13 11 9 10 11 12 15 18 21 22 20 21 22 27 27 27 26 28 28 27 27 32 35 37 43 41 43 44 45 43 42 44 44 48 61 70 77 83 88 93 93 79 81 84 87 99 98 106 97 99 98 100 94 91 79 70 65 63 58 67 74 77 81 79 78 73 66 69 62 62 66 68 68 68 77 80 85 77 71 74 74 75 76 82 92 90 87 86 83 79 77 71 71 68 64 62 59 56 50 48 45 41 31 30 31 31 32 33 34 35 34 33 33 32 31 30 30 29 28 28 27 26 26 25 25 24 23 23 22 22 21 21 20 20 19 19 18 18 18 17 17 16 16 16 15 15 15 14 14 13 13 13 13 12 12 12 11 11 11 11 10 10 10 10 10 9 9 9 9 9 8 8 8 8 8 8 7 7 7 7 7 7 7 6 6 6 6 6 6 6 6 6 5 5 5 5 5 5 5 5 5 5 5 5 6 6 6 6 6 6 6 6 6 6 6 6 7 7 7 7 7 7 7 7 8 8 8 8 8 8 8 9 9 9 9 9 10 10 10 10 10 10 11 11 11 11 11 12 12 12 12 13 13 13 14 14 14 14 15 15 15 15 16 16 17 17 17 18 18 18 19 19 19 20 20 21 21 21 22 22 23 23 24 24 25 25 26 26 27 27 28 29 29 30 30 31 32 32 33 34 34 35 35 36 37 38 39 40 40 41 42 43 36 31 28 27 26 25 37 45 55 65 70 76 50 35 31 30 29 29 28 27 29 27 23 24 26 26 26 27 30 30 30 30 31 32 31 33 32 31 30 30 31 34 35 35 35 35 35 36 38 39 41 42 42 41 42 45 50 50 46 46 48 51 47 45 41 44 44 43 48 50 54 52 55 59 63 66 67 68 68 72 72 76 75 74 74 77 83 84 87 88 92 101 82 81 81 77 80 74 76 74 74 70 66 62 63 65 68 67 67 65 73 86 96 106 129 150 150 153 147 144 140 133 129 118 122 113 117 115 114 115 114 113 122 119 117 126 114 120 110 105 101 99 94 91 90 86 79 52 42 34 35 31 37 31 47 54 58 60 57 53 49 48 47 47 46 48 43 39 37 35 32 33 31 34 33 34 34 29 25 26 26 25 23 23 21 20 19 19 19 20 19 21 20 18 17 15 16 19 19 26 30 35 36 34 34 35 38 35 33 31 28 27 25 25 24 24 25 25 26 29 32 32 33 35 34 38 36 36 36 40 45 50 54 50 56 68 72 79 91 101 113 120 130 132 140 135 148 146 142 130 139 122 112 85 70 68 68 72 72 68 66 64 71 80 92 97 108 108 94 77 69 64 57 50 47 45 42 42 40 38 38 35 32 29 28 26 27 29 31 37 44 50 51 50 49 49 49 47 46 44 43 42 41 40 39 37 36 34 33 31 29 28 27 26 24 22 18 16 16 17 16 17 18 18 18 18 17 17 17 16 16 16 15 15 15 15 14 14 14 13 13 13 13 12 12 12 12 11 11 11 11 11 10 10 10 10 10 9 9 9 9 9 9 8 8 8 8 8 8 8 7 7 7 7 7 7 7 7 6 6 6 6 6 6 6 6 6 6 6 6 5 5 5 5 5 5 5 5 5 5 5 5 5 5 5 5 6 6 6 6 6 6 6 6 6 6 6 6 6 7 7 7 7 7 7 7 7 7 7 8 8 8 8 8 8 8 9 9 9 9 9 9 10 10 10 10 10 10 11 11 11 11 11 12 12 12 12 12 13 13 13 13 14 14 14 14 15 15 15 15 16 16 16 17 17 17 17 18 18 18 19 19 19 20 20 21 21 21 22 22 23 23 23 24 24 25 25 26 26 27 27 28 28 29 29 30 30 31 29 24 22 21 20 19 19 29 36 47 50 58 59 50 37 31 29 26 23 18 17 18 18 18 15 13 16 17 17 19 19 20 23 25 33 36 37 38 35 36 37 37 38 40 36 35 34 34 30 27 25 25 27 28 31 36 38 39 41 39 39 43 47 49 54 58 64 69 79 85 86 86 90 94 95 98 94 84 80 73 70 78 77 83 77 83 81 81 80 72 68 72 73 74 70 70 67 89 91 111 135 140 143 138 136 139 137 138 142 135 132 131 122 128 120 118 116 124 129 129 129 126 125 131 127 132 134 141 149 150 145 144 148 143 135 134 136 117 104 105 111 117 117 117 114 117 114 115 113 118 117 117 119 119 91 67 63 58 53 63 63 79 81 82 80 74 69 59 54 46 45 44 41 36 34 35 35 31 31 25 25 22 22 22 19 19 19 19 17 18 17 18 21 24 25 29 36 36 39 39 43 47 54 58 59 63 64 60 57 50 49 47 43 44 43 45 44 44 41 38 41 40 40 39 38 34 33 33 31 31 34 35 35 37 36 38 38 42 48 56 60 63 66 67 74 76 76 76 79 77 73 73 82 83 86 88 97 100 108 87 72 61 50 44 40 39 39 37 38 37 42 51 59 68 69 68 71 69 64 67 60 59 58 57 56 48 37 35 32 29 26 25 23 21 18 16 15 16 17 18 18 18 22 23 25 27 30 33 34 32 32 31 31 30 29 29 28 27 27 26 26 25 24 23 21 21 20 19 18 17 16 16 14 13 11 11 11 11 11 12 12 12 12 12 11 11 11 11 11 10 10 10 10 10 10 9 9 9 9 9 9 9 8 8 8 8 8 8 8 7 7 7 7 7 7 7 7 7 7 6 6 6 6 6 6 6 6 6 6 6 6 5 5 5 5 5 5 5 5 5 5 5 5 5 5 5 5 5 5 5 5 5 6 6 6 6 6 6 6 6 6 6 6 6 6 7 7 7 7 7 7 7 7 7 7 8 8 8 8 8 8 8 8 9 9 9 9 9 9 9 10 10 10 10 10 10 11 11 11 11 11 11 12 12 12 12 12 13 13 13 13 14 14 14 14 15 15 15 15 16 16 16 16 17 17 17 18 18 18 18 19 19 20 20 20 20 21 21 21 22 22 23 23 24 24 24 25 25 25 21 19 18 17 16 16 21 27 33 36 39 43 47 49 39 29 26 20 18 17 15 15 16 15 13 13 14 15 18 23 25 26 27 27 24 23 22 23 22 26 30 34 38 40 43 44 44 44 42 41 40 42 39 36 37 38 38 38 38 39 36 36 31 30 27 28 27 27 25 26 27 29 34 38 45 53 59 56 58 60 66 69 62 75 92 110 117 119 118 125 126 124 130 132 138 143 139 140 144 143 136 131 131 129 140 142 144 139 145 149 153 156 151 150 151 153 151 148 142 135 131 121 112 112 125 137 141 139 137 143 150 155 162 163 167 173 163 163 158 164 166 177 183 187 195 195 185 183 187 188 180 173 173 171 167 172 168 161 165 150 102 83 66 69 67 79 90 98 97 95 90 81 71 67 61 59 55 51 44 42 40 37 33 32 29 23 20 21 22 24 25 28 29 32 34 35 39 39 45 46 45 51 49 54 55 54 56 49 43 44 40 38 38 37 35 34 33 33 39 42 42 40 40 39 37 39 42 45 45 46 47 46 45 39 37 35 35 35 34 41 43 42 40 40 38 39 41 42 43 45 47 48 49 52 54 55 58 63 65 65 64 65 67 69 72 72 67 56 33 27 25 21 20 23 25 31 37 45 59 64 62 60 52 48 48 50 49 48 47 47 46 44 43 42 41 40 39 38 37 34 26 21 17 12 13 13 13 13 14 14 16 16 17 17 17 17 16 15 17 19 20 25 25 25 24 23 23 22 22 21 20 21 20 19 19 18 17 17 17 16 15 15 14 13 13 12 11 11 10 9 8 8 9 9 10 9 9 9 9 9 9 8 8 8 8 8 8 8 8 7 7 7 7 7 7 7 7 7 7 6 6 6 6 6 6 6 6 6 6 6 6 6 6 5 5 5 5 5 5 5 5 5 5 5 5 5 5 5 5 5 5 5 5 5 5 6 6 6 6 6 6 6 6 6 6 6 6 6 6 7 7 7 7 7 7 7 7 7 7 8 8 8 8 8 8 8 8 9 9 9 9 9 9 9 10 10 10 10 10 10 10 11 11 11 11 11 12 12 12 12 12 13 13 13 13 13 14 14 14 14 15 15 15 15 16 16 16 16 17 17 17 18 18 18 18 19 19 19 20 20 20 21 21 21 22 22 23 23 23 20 18 17 16 15 18 23 26 28 32 34 38 32 28 28 28 25 23 19 21 20 19 17 16 17 16 20 24 24 26 26 29 29 33 35 35 38 39 40 40 43 44 41 39 37 36 37 33 30 28 28 26 24 25 24 24 22 21 22 25 24 25 24 24 24 25 28 31 30 32 42 45 48 50 52 53 56 55 55 60 66 73 77 82 82 85 92 99 104 101 104 108 106 104 103 97 97 97 99 93 94 95 95 97 95 90 90 89 94 105 114 115 120 119 121 125 127 128 128 129 135 137 140 148 148 152 155 159 165 169 179 179 188 188 198 206 210 206 204 208 206 201 206 210 221 228 235 239 234 244 247 249 255 244 244 239 244 225 222 227 221 209 200 191 188 172 92 69 62 50 44 50 55 73 69 61 56 55 51 48 47 41 38 39 38 41 44 43 46 48 48 49 51 51 48 49 46 46 48 49 48 47 47 44 44 44 38 31 28 30 29 28 27 25 26 28 31 34 35 34 35 36 39 42 45 46 46 45 46 47 46 43 43 44 45 44 45 47 50 52 55 57 58 57 57 56 52 47 45 43 41 41 41 38 37 37 35 35 35 37 38 41 41 42 44 47 49 52 58 63 69 74 70 49 24 19 16 16 14 14 17 25 42 52 54 53 53 53 52 51 51 48 47 45 41 39 38 40 40 36 35 37 37 35 33 32 28 28 27 24 21 22 22 17 15 14 13 14 15 14 14 14 13 14 14 13 14 14 15 15 14 15 14 17 21 21 20 20 19 19 19 18 18 17 17 16 15 15 15 14 14 14 13 13 12 12 11 11 10 9 9 8 7 7 7 8 8 8 8 8 8 8 7 7 7 7 7 7 7 7 7 7 6 6 6 6 6 6 6 6 6 6 6 6 6 6 5 5 5 5 5 5 5 5 5 5 5 5 5 5 5 5 5 5 5 5 5 5 6 6 6 6 6 6 6 6 6 6 6 6 6 7 7 7 7 7 7 7 7 7 7 8 8 8 8 8 8 8 8 9 9 9 9 9 9 9 10 10 10 10 10 10 11 11 11 11 11 11 12 12 12 12 12 13 13 13 13 14 14 14 14 15 15 15 15 16 16 16 16 17 17 17 18 18 18 18 19 19 20 20 20 20 21 21 21 22 22 23 23 21 18 17 16 16 19 23 24 23 24 23 17 15 18 23 24 27 31 38 45 58 67 71 62 60 50 47 46 42 43 42 41 38 37 29 26 24 18 18 17 17 17 18 18 19 19 20 20 20 21 22 23 24 24 26 28 34 44 49 53 56 56 58 59 59 61 57 58 58 58 60 61 56 53 50 51 51 52 54 53 49 52 49 46 45 46 49 51 53 54 55 57 58 62 71 75 78 80 88 94 96 101 101 107 110 114 115 115 112 114 112 115 115 118 117 119 121 120 121 125 128 128 132 130 138 138 137 143 139 134 136 138 138 146 164 169 171 170 152 159 150 144 155 149 148 145 138 135 137 141 133 134 134 131 128 133 136 132 128 121 115 110 110 102 99 94 86 77 72 66 60 47 31 26 24 25 25 27 37 46 48 50 54 57 64 66 63 64 62 60 59 59 57 63 67 76 86 88 85 90 76 71 67 64 58 50 38 31 33 33 31 31 33 34 36 38 39 41 43 42 44 42 44 42 42 42 41 42 40 41 41 40 41 44 43 46 47 48 51 58 60 59 60 59 58 58 56 56 56 56 55 57 57 57 57 58 58 57 54 46 44 42 39 38 36 35 34 32 30 32 33 34 35 41 44 52 56 40 33 26 21 19 18 19 19 22 34 53 53 47 43 40 42 45 45 45 44 43 44 44 44 41 40 38 38 36 33 34 32 29 29 29 27 26 24 20 21 22 22 23 22 24 24 26 20 16 15 14 13 13 12 12 12 12 12 12 12 13 13 13 13 13 13 14 15 16 18 18 18 17 17 17 16 15 15 15 14 14 14 13 13 12 12 12 11 11 11 10 10 9 9 8 8 6 6 7 7 7 7 7 7 7 7 7 7 6 6 6 6 6 6 6 6 6 6 6 6 6 6 5 5 5 5 5 5 5 5 5 5 5 5 5 5 5 5 5 5 5 5 6 6 6 6 6 6 6 6 6 6 6 6 6 7 7 7 7 7 7 7 7 7 7 8 8 8 8 8 8 8 9 9 9 9 9 9 10 10 10 10 10 10 11 11 11 11 11 12 12 12 12 12 13 13 13 13 14 14 14 14 15 15 15 15 16 16 16 17 17 17 17 18 18 18 19 19 19 20 20 21 21 21 22 22 23 22 19 17 16 17 19 20 20 23 22 27 32 35 45 50 47 39 33 31 32 32 36 40 54 83 103 91 82 72 57 50 44 39 34 33 30 27 22 21 19 20 19 20 19 21 22 23 23 23 27 29 29 29 32 36 46 50 55 55 56 56 57 60 60 57 59 59 56 57 63 65 65 62 62 63 64 64 60 59 57 55 51 46 46 49 55 58 59 59 56 56 55 54 54 53 53 54 57 60 58 60 58 58 58 64 65 68 70 71 72 74 72 75 77 77 80 86 87 92 92 101 99 97 100 101 98 97 98 97 93 98 93 91 91 89 92 92 92 107 116 113 105 103 100 97 99 96 94 95 90 95 92 92 93 93 91 92 90 90 88 87 87 83 82 76 76 69 59 56 51 50 47 44 42 37 34 31 25 25 24 26 23 17 17 20 19 20 25 26 38 40 39 40 43 44 51 52 52 53 52 54 56 57 54 51 49 47 45 48 42 40 42 46 48 50 55 56 60 67 68 64 60 55 55 59 62 63 65 64 67 68 59 58 55 55 55 53 55 56 58 55 55 55 59 60 59 57 57 57 53 56 56 56 58 58 60 62 63 67 69 67 65 66 65 64 64 61 60 61 60 59 61 60 58 57 50 45 42 40 37 38 36 35 29 24 24 27 24 21 21 22 24 26 30 36 46 59 62 59 57 54 54 51 48 46 42 39 38 42 41 42 42 42 40 41 37 36 35 34 31 30 28 25 23 21 19 21 22 23 23 25 25 28 30 29 29 29 27 23 17 15 14 13 13 12 12 12 12 12 12 12 12 12 12 13 13 13 14 14 17 17 15 16 16 16 15 15 15 15 14 14 13 13 13 12 12 12 11 11 10 10 10 9 9 8 8 7 6 6 6 7 7 7 7 7 7 6 6 6 6 6 6 6 6 6 6 6 6 5 5 5 5 5 5 5 5 5 5 5 5 5 5 5 5 5 6 6 6 6 6 6 6 6 6 6 6 6 7 7 7 7 7 7 7 7 8 8 8 8 8 8 8 9 9 9 9 9 10 10 10 10 10 10 11 11 11 11 11 12 12 12 12 13 13 13 14 14 14 14 15 15 15 15 16 16 17 17 17 18 18 18 19 19 19 20 20 21 21 18 17 16 15 16 21 23 28 29 35 35 37 39 42 43 44 46 47 46 39 37 37 35 43 58 58 50 41 29 24 22 20 22 23 27 38 63 66 73 77 82 73 74 68 58 54 52 54 53 46 43 41 42 36 39 37 41 39 41 40 48 62 61 62 60 59 55 55 57 60 60 61 60 59 58 58 57 58 56 51 49 49 49 52 50 51 51 52 53 50 53 55 54 53 51 51 50 49 47 49 49 48 47 48 46 45 44 41 42 46 44 40 39 41 42 43 42 43 44 45 48 46 47 49 49 50 51 52 53 54 56 58 60 60 60 63 67 69 71 71 76 74 77 74 77 75 79 76 86 85 88 85 83 81 80 73 73 68 67 67 65 65 62 63 63 66 64 63 65 64 61 60 58 54 49 45 48 42 40 36 32 32 29 25 24 24 24 24 24 24 28 29 28 28 29 29 29 27 18 13 12 11 14 16 24 31 31 30 30 28 29 27 28 26 27 25 28 29 30 31 33 37 42 48 50 55 57 56 57 58 56 56 57 55 58 58 58 57 60 61 61 55 55 53 51 51 55 57 57 60 61 64 62 66 62 65 62 59 55 56 57 57 58 55 58 59 59 59 62 57 63 59 61 61 61 61 65 67 65 69 71 74 76 78 76 75 73 72 75 72 71 71 76 75 69 55 42 36 31 28 25 26 28 27 26 26 29 31 36 49 69 83 81 80 76 72 70 69 64 61 60 55 54 51 47 42 40 38 41 43 43 43 42 38 38 36 32 28 23 22 23 23 23 25 27 29 32 33 34 33 34 33 33 32 33 32 31 22 19 17 15 15 14 14 13 13 13 13 12 13 13 12 13 13 14 14 15 17 19 18 17 16 16 16 16 15 15 14 14 14 13 13 12 12 12 11 11 10 10 10 9 9 8 8 7 6 6 6 7 7 7 7 7 6 6 6 6 6 6 6 6 6 6 6 6 5 5 5 5 5 5 5 5 5 5 5 6 6 6 6 6 6 6 6 6 6 7 7 7 7 7 7 7 8 8 8 8 8 8 9 9 9 9 9 10 10 10 10 11 11 11 11 12 12 12 12 13 13 13 14 14 14 15 15 15 16 16 16 17 17 18 18 18 19 19 20 20 21 19 18 17 16 17 20 24 27 29 31 33 35 39 40 41 43 47 47 50 50 53 56 58 61 64 64 63 52 47 47 44 38 34 29 27 27 34 46 53 59 50 37 36 39 39 46 52 60 94 134 179 178 138 115 93 79 66 67 68 66 63 66 66 68 63 61 58 63 67 64 63 59 61 57 54 51 50 48 42 43 45 48 48 50 48 44 41 41 41 39 40 39 40 38 39 40 39 40 40 39 39 39 39 39 38 38 38 36 37 38 37 38 38 40 37 39 38 37 38 37 36 36 37 38 38 38 40 39 37 34 35 37 41 42 41 43 40 43 43 44 45 44 44 44 44 45 44 46 47 46 46 46 47 47 47 48 49 53 55 56 56 55 55 54 59 60 61 61 60 59 60 62 59 60 58 58 54 53 52 51 49 44 38 35 36 34 33 30 27 23 20 20 19 20 20 22 24 26 25 25 23 22 22 21 20 20 22 24 24 27 26 28 27 21 15 10 10 9 8 10 11 17 16 17 19 20 23 24 25 27 29 30 31 35 36 41 41 41 41 44 45 47 46 48 47 48 50 49 52 53 52 53 55 54 57 56 56 56 54 52 54 53 58 54 54 50 51 55 57 56 56 55 58 57 58 58 59 59 58 58 57 56 54 50 48 48 47 48 47 49 47 46 48 46 47 49 46 48 47 52 53 56 57 56 59 55 51 46 46 46 47 48 50 51 56 51 51 46 44 42 46 50 52 61 71 77 80 96 115 115 115 107 106 100 92 91 84 81 75 71 64 61 57 52 48 44 46 48 48 46 41 34 31 32 31 32 33 31 37 42 43 46 43 45 44 45 46 43 44 43 42 41 40 34 27 25 22 21 19 18 17 16 16 15 15 16 15 15 15 15 16 16 17 18 20 21 20 20 18 19 17 17 17 16 16 15 15 14 14 13 13 12 12 11 11 10 10 10 9 9 8 7 7 7 7 7 7 7 7 7 7 7 6 6 6 6 6 6 6 6 6 5 5 5 5 5 5 5 6 6 6 6 6 6 6 7 7 7 7 7 7 8 8 8 8 9 9 9 9 10 10 10 10 11 11 11 12 12 12 13 13 14 14 14 15 15 16 16 17 17 18 18 19 20 20 21 21 22 23 23 21 20 20 19 22 25 30 32 35 36 38 40 42 45 46 52 54 54 59 62 66 69 75 78 80 81 84 72 64 61 60 58 56 57 56 55 53 55 55 56 56 60 58 48 44 43 41 55 68 90 106 115 90 67 64 58 65 58 59 63 59 63 71 76 72 62 57 49 46 47 50 50 58 72 73 70 63 64 64 71 71 71 71 67 64 61 56 55 50 44 43 39 38 39 39 35 37 37 35 33 36 33 33 32 32 31 31 29 30 31 29 30 30 28 28 29 29 29 30 29 29 30 30 30 32 32 31 32 33 31 32 34 34 35 37 37 36 37 39 37 36 37 35 35 35 36 38 38 40 40 38 37 38 39 40 41 39 38 40 38 35 36 36 37 38 37 38 39 41 42 39 39 39 38 38 40 41 41 41 39 40 40 40 39 40 39 39 39 37 34 34 33 34 34 33 22 21 21 22 21 21 25 24 22 22 19 20 20 19 18 16 16 16 16 16 16 18 19 20 20 20 21 19 18 17 17 16 12 8 6 8 8 9 10 18 23 24 27 28 30 31 33 34 33 35 35 34 37 36 38 37 39 38 39 38 39 42 43 42 43 44 42 43 43 43 48 47 50 51 55 56 57 58 56 55 55 54 52 51 51 51 48 48 45 43 46 51 53 53 52 52 50 50 52 51 49 51 50 52 51 52 50 49 48 47 42 41 41 41 41 40 35 33 31 29 30 26 27 29 28 30 31 32 33 40 44 47 48 52 64 88 93 76 58 66 62 64 56 60 58 61 63 91 106 102 92 94 93 89 86 82 79 73 70 64 60 60 54 50 45 43 40 43 45 47 50 51 53 61 64 74 80 80 78 79 76 76 78 76 77 74 73 71 71 67 65 51 47 39 36 34 31 29 29 27 25 24 23 22 22 23 22 23 23 23 24 27 30 28 28 27 26 24 24 23 22 21 20 20 19 18 17 16 16 15 14 14 13 13 12 12 11 10 9 8 8 9 9 8 8 8 8 8 7 7 7 7 7 6 6 6 6 6 6 6 6 5 5 6 6 6 6 6 7 7 7 7 8 8 8 9 9 9 10 10 11 11 12 12 13 13 14 14 15 16 17 17 18 19 20 21 22 23 24 25 26 27 28 30 31 31 29 29 29 30 35 37 42 47 52 57 58 61 63 64 66 68 69 70 70 76 79 79 81 84 84 86 87 87 70 62 59 55 51 51 50 50 49 49 49 51 52 51 53 53 57 59 62 65 66 73 82 85 88 77 60 51 46 46 62 68 72 71 76 77 69 64 62 48 32 31 31 28 28 28 25 31 35 46 57 67 80 85 85 83 85 83 80 74 74 73 73 70 57 56 57 54 52 51 48 49 46 45 40 35 33 34 34 33 30 29 29 29 29 28 27 26 27 27 25 26 25 25 26 25 26 27 28 26 27 28 28 27 28 29 28 29 29 30 30 31 31 32 31 32 32 33 32 31 31 31 31 32 31 32 34 33 34 33 32 34 34 35 35 35 36 36 36 35 36 36 37 38 36 37 36 35 35 35 34 33 32 32 31 32 30 31 31 31 31 31 30 29 28 29 28 26 25 24 23 21 21 17 17 18 19 20 19 19 19 19 19 19 19 19 17 17 16 16 16 17 17 17 16 15 16 17 16 14 15 15 15 16 17 17 17 19 20 20 22 18 11 8 8 10 13 15 20 30 30 31 32 31 32 33 33 33 33 35 36 37 38 38 38 38 39 40 40 39 40 40 40 41 42 43 43 45 46 45 47 46 48 48 47 49 46 47 46 48 47 45 47 47 46 47 47 47 45 46 44 41 40 39 38 43 44 44 44 45 46 46 46 48 48 47 44 43 41 37 38 35 34 33 33 33 28 27 26 24 26 27 27 27 29 28 30 30 33 35 37 41 46 63 86 103 126 99 73 62 60 53 48 49 49 52 64 86 100 92 88 77 77 72 65 61 52 46 44 40 34 30 30 29 33 42 44 50 52 54 61 69 68 75 74 75 79 76 77 79 82 85 85 87 87 85 86 80 72 63 60 54 50 52 49 48 46 46 46 47 44 42 44 47 49 50 55 56 61 65 63 57 54 52 50 48 45 42 41 38 34 33 32 29 29 27 25 25 23 22 21 19 18 17 14 13 13 13 13 13 12 12 11 11 10 10 9 9 9 8 8 8 7 7 7 7 6 6 6 6 6 6 7 7 8 8 9 10 10 11 12 14 15 16 18 19 21 23 25 27 29 32 35 38 42 45 49 50 50 50 50 50 51 51 47 44 42 39 44 47 49 49 51 53 55 57 60 59 62 61 61 64 66 65 68 67 71 75 77 77 78 79 81 76 66 58 53 49 48 47 45 45 45 46 46 47 47 48 52 53 55 57 58 61 65 70 79 85 86 85 82 81 74 72 71 71 64 50 43 37 30 35 41 46 53 54 56 49 53 49 39 29 31 27 28 30 33 41 51 54 68 75 69 73 78 86 87 82 79 67 57 56 55 51 50 49 48 47 45 46 42 42 41 42 41 40 40 40 40 38 36 33 32 31 30 28 28 28 27 26 28 28 28 29 29 27 28 27 28 28 30 28 29 29 29 28 29 29 29 28 28 27 27 28 28 28 29 28 28 28 28 27 27 27 28 28 28 28 28 28 28 28 28 29 29 29 30 31 32 32 32 34 34 34 33 34 35 34 33 32 32 30 30 30 31 31 30 29 28 28 27 28 27 26 25 23 21 20 19 18 16 16 16 15 14 14 14 13 13 11 11 10 10 11 11 13 13 14 14 13 13 13 13 14 13 14 16 17 17 17 17 18 20 21 23 24 26 29 28 28 25 23 22 23 23 15 12 11 12 14 16 18 29 31 32 32 33 33 32 33 34 34 35 37 39 39 41 42 42 44 44 42 45 44 44 45 46 44 46 46 45 46 45 45 46 45 44 44 43 43 42 41 41 42 41 42 41 41 39 39 39 38 38 38 37 39 41 43 41 40 38 34 31 32 32 32 33 32 32 32 32 31 31 32 32 33 35 35 36 35 37 36 36 39 40 41 38 34 35 36 39 43 45 47 51 57 58 60 63 65 61 61 53 54 51 47 44 49 54 64 85 90 87 82 75 62 56 31 24 21 23 26 29 31 32 38 44 48 58 63 65 72 70 72 73 74 76 73 72 76 79 81 82 81 81 80 74 68 63 58 54 52 49 47 45 44 43 42 42 42 43 45 46 43 48 48 55 61 70 72 70 69 66 65 65 63 63 63 62 60 58 57 57 56 56 56 55 55 53 53 52 51 43 44 46 49 50 49 45 41 38 35 32 29 27 25 23 21 19 17 16 15 14 12 11 10 10 9 8 8 7 7 6 